<?xml version="1.0" encoding="UTF-8" standalone="no"?>
<!-- Created with Inkscape (http://www.inkscape.org/) -->

<svg
   xmlns:dc="http://purl.org/dc/elements/1.1/"
   xmlns:cc="http://creativecommons.org/ns#"
   xmlns:rdf="http://www.w3.org/1999/02/22-rdf-syntax-ns#"
   xmlns:svg="http://www.w3.org/2000/svg"
   xmlns="http://www.w3.org/2000/svg"
   xmlns:sodipodi="http://sodipodi.sourceforge.net/DTD/sodipodi-0.dtd"
   xmlns:inkscape="http://www.inkscape.org/namespaces/inkscape"
   width="20.896225mm"
   height="12.797412mm"
   viewBox="0 0 74.041742 45.34516"
   id="svg2"
   version="1.1"
   inkscape:version="0.91 r13725"
   sodipodi:docname="cenote.svg"
   inkscape:export-filename="/home/z/Escritorio/cenote.svg"
   inkscape:export-xdpi="300"
   inkscape:export-ydpi="300">
  <defs
     id="defs4" />
  <sodipodi:namedview
     id="base"
     pagecolor="#ffffff"
     bordercolor="#666666"
     borderopacity="1.0"
     inkscape:pageopacity="0.0"
     inkscape:pageshadow="2"
     inkscape:zoom="0.98994949"
     inkscape:cx="-241.9652"
     inkscape:cy="-311.07913"
     inkscape:document-units="px"
     inkscape:current-layer="layer1"
     showgrid="false"
     fit-margin-top="0"
     fit-margin-left="0"
     fit-margin-right="0"
     fit-margin-bottom="0"
     inkscape:window-width="1920"
     inkscape:window-height="1056"
     inkscape:window-x="0"
     inkscape:window-y="0"
     inkscape:window-maximized="1" />
  <metadata
     id="metadata7">
    <rdf:RDF>
      <cc:Work
         rdf:about="">
        <dc:format>image/svg+xml</dc:format>
        <dc:type
           rdf:resource="http://purl.org/dc/dcmitype/StillImage" />
        <dc:title></dc:title>
      </cc:Work>
    </rdf:RDF>
  </metadata>
  <g
     inkscape:label="Capa 1"
     inkscape:groupmode="layer"
     id="layer1">
    <path
       style="fill:#69573f;fill-opacity:0.94117647"
       d="m 51.095924,43.329803 -2.65092,-2.65092 3.95973,-1.30619 c 2.80438,-0.92508 4.24148,-2.36911 4.92535,-4.9491 0.5311,-2.00359 0.67511,-4.11297 0.32003,-4.6875 -1.06129,-1.7172 -7.61744,-1.18566 -12.17347,0.98696 -3.23288,1.54165 -5.12708,1.73436 -7.85491,0.7991 -3.33456,-1.14327 -2.84844,-1.40253 6.71782,-3.5827 7.88368,-1.79671 10.3125,-2.84404 10.3125,-4.44687 0,-1.15314 0.37613,-3.07679 0.83584,-4.27478 0.87011,-2.26749 1.08567,-2.27493 -7.08584,0.24448 -1.375,0.42393 -2.5,0.23172 -2.5,-0.42714 0,-0.65886 2.25,-1.87205 5,-2.69597 2.75,-0.82392 5,-1.98909 5,-2.58928 0,-0.60018 1.6875,-0.45428 3.75,0.32423 4.61025,1.74017 4.70484,2.75892 0.45139,4.86166 -4.86994,2.40751 -3.18477,4.1242 4.10275,4.17948 6.83529,0.0519 11.54143,2.48066 9.24884,4.77325 -0.90397,0.90397 -1.76232,0.84364 -2.80298,-0.19702 -0.825,-0.825 -3.3006,-1.5 -5.50133,-1.5 -3.96667,0 -3.99968,0.0514 -3.8125,5.9375 0.13354,4.19903 -0.54316,6.92842 -2.31117,9.32187 -3.42081,4.63092 -4.84237,4.9677 -7.93113,1.87894 z m -35.38183,1.00706 c -0.41308,-0.41307 -0.51309,-4.39093 -0.22225,-8.83968 0.5555,-8.49689 0.66769,-8.30812 -5.8397897,-9.8256 -2.9886,-0.69692 -10.90977,-11.48699 -9.48138996,-12.91537 1.01974996,-1.01975 8.23138996,6.83386 8.23138996,8.96413 0,1.08413 0.5165,1.97115 1.14777,1.97115 3.0619297,0 5.1022297,-1.80297 5.1022297,-4.50874 0,-2.49029 -0.62804,-2.99126 -3.75,-2.99126 -4.8556497,0 -4.7874197,-1.56032 0.14974,-3.42389 3.78296,-1.42791 3.87424,-1.64199 3.04841,-7.1490504 -0.91008,-6.06882997 0.16887,-7.13147 3.67797,-3.62237 1.31122,1.31122 1.78722,3.12044 1.31548,5 -0.81605,3.2513904 0.0522,3.5511604 4.92228,1.69954 2.44129,-0.92818 4.20377,-0.76633 6.91336,0.63486 4.31709,2.2324504 3.8426,4.2656504 -1.62707,6.9719404 -2.42029,1.19752 -4.01618,2.93452 -4.01956,4.375 -0.003,1.35024 -0.74219,2.23402 -1.69968,2.03261 -3.18146,-0.66924 -4.68772,2.07354 -4.45731,8.11641 0.22976,6.02609 -2.01323,14.90867 -3.41158,13.51032 z m 7.68796,-30.25928 c 0,-2.258 -3.66366,-2.06555 -4.54797,0.23891 -0.39572,1.03125 -0.3379,2.85937 0.12851,4.0625 0.79029,2.03862 0.96955,2.02236 2.63373,-0.23891 0.98215,-1.33453 1.78573,-3.16265 1.78573,-4.0625 z m 21.875,-1.63609 c -1.24436,-1.375 -1.63258,-2.5000004 -0.86271,-2.5000004 0.76986,0 2.00183,1.1250004 2.73771,2.5000004 0.73588,1.375 1.1241,2.5 0.86271,2.5 -0.26138,0 -1.49335,-1.125 -2.73771,-2.5 z m 5.65007,-1.84479 c -0.98594,-1.1879804 -1.08076,-1.9052104 -0.2519,-1.9052104 1.5107,0 3.272,2.3715004 2.40512,3.2383704 -0.31462,0.31463 -1.28357,-0.2853 -2.15322,-1.33316 z m 7.16899,-2.5302104 c 0.43795,-2.29096 0.0581,-3.125 -1.42334,-3.125 -2.4972,0 -2.60866,-1.70594 -0.2399,-3.67183 1.45318,-1.20603997 2.17948,-0.63781997 3.94772,3.08847 1.83756,3.87237 1.89937,4.73578 0.40668,5.6807504 -2.78987,1.76616 -3.33013,1.37019 -2.69116,-1.9723904 z"
       id="path14144"
       inkscape:connector-curvature="0" />
    <path
       style="fill:#000000"
       d=""
       id="path14142"
       inkscape:connector-curvature="0" />
    <path
       style="fill:#000000"
       d=""
       id="path14140"
       inkscape:connector-curvature="0" />
  </g>
</svg>
