<?xml version="1.0" encoding="UTF-8" standalone="no"?>
<!-- Created with Inkscape (http://www.inkscape.org/) -->

<svg
   xmlns:dc="http://purl.org/dc/elements/1.1/"
   xmlns:cc="http://creativecommons.org/ns#"
   xmlns:rdf="http://www.w3.org/1999/02/22-rdf-syntax-ns#"
   xmlns:svg="http://www.w3.org/2000/svg"
   xmlns="http://www.w3.org/2000/svg"
   xmlns:sodipodi="http://sodipodi.sourceforge.net/DTD/sodipodi-0.dtd"
   xmlns:inkscape="http://www.inkscape.org/namespaces/inkscape"
   width="127mm"
   height="63.5mm"
   viewBox="0 0 127 63.5"
   version="1.1"
   id="svg8"
   inkscape:export-filename="/home/z/Escritorio/recursos.png"
   inkscape:export-xdpi="90"
   inkscape:export-ydpi="90"
   inkscape:version="0.92.3 (unknown)"
   sodipodi:docname="conexiones.svg">
  <defs
     id="defs2" />
  <sodipodi:namedview
     id="base"
     pagecolor="#ffffff"
     bordercolor="#666666"
     borderopacity="1.0"
     inkscape:pageopacity="0.0"
     inkscape:pageshadow="2"
     inkscape:zoom="1.4"
     inkscape:cx="224.93197"
     inkscape:cy="118.42926"
     inkscape:document-units="mm"
     inkscape:current-layer="layer1"
     showgrid="false"
     fit-margin-top="0"
     fit-margin-left="0"
     fit-margin-right="0"
     fit-margin-bottom="0"
     inkscape:window-width="1920"
     inkscape:window-height="1053"
     inkscape:window-x="0"
     inkscape:window-y="0"
     inkscape:window-maximized="1" />
  <metadata
     id="metadata5">
    <rdf:RDF>
      <cc:Work
         rdf:about="">
        <dc:format>image/svg+xml</dc:format>
        <dc:type
           rdf:resource="http://purl.org/dc/dcmitype/StillImage" />
        <dc:title />
      </cc:Work>
    </rdf:RDF>
  </metadata>
  <g
     inkscape:label="Capa 1"
     inkscape:groupmode="layer"
     id="layer1">
    <path
       style="color:#000000;clip-rule:nonzero;display:inline;overflow:visible;visibility:visible;opacity:1;isolation:auto;mix-blend-mode:normal;color-interpolation:sRGB;color-interpolation-filters:linearRGB;solid-color:#000000;solid-opacity:1;fill:#fefefe;fill-opacity:1;fill-rule:nonzero;stroke:none;stroke-width:12;stroke-linecap:round;stroke-linejoin:bevel;stroke-miterlimit:4;stroke-dasharray:none;stroke-dashoffset:0;stroke-opacity:1;paint-order:fill markers stroke;color-rendering:auto;image-rendering:auto;shape-rendering:auto;text-rendering:auto;enable-background:accumulate"
       d="M 0 0 L 0 240 L 480 240 L 480 0 L 0 0 z M 239.99219 32.869141 C 249.95918 32.869141 253.78655 33.296062 261.80273 35.308594 C 296.60043 44.044838 323.0334 73.264311 328.30078 108.81641 C 332.29438 135.77112 323.68656 163.36317 305.18555 182.9082 C 297.13874 191.40909 283.18073 200.20006 273.35547 202.95703 C 265.52179 205.15516 256.26702 204.06482 249.71094 200.16992 C 246.75542 198.41409 242.56604 194.5229 240.51172 191.62695 C 235.18175 184.11335 232.09108 173.46822 231.24023 159.69531 C 231.02064 156.14445 230.79415 153.06502 230.73633 152.85352 C 230.6785 152.64201 229.78852 152.37091 228.75977 152.25 C 226.6399 152.00085 222.7672 150.75404 220.44336 149.57422 C 212.63342 145.6091 207.01757 137.96614 205.46094 129.18164 C 205.24286 127.95033 205.09375 121.12497 205.09375 112.34375 L 205.09375 97.576172 L 240.01367 97.576172 L 274.93359 97.576172 L 274.8125 113.7168 C 274.69269 129.51815 274.67224 129.90728 273.87695 132.29883 C 270.21648 143.3044 262.15396 150.38274 251.19727 152.20898 C 249.58662 152.47744 248.19896 152.76784 248.11328 152.85352 C 247.837 153.13003 248.70285 163.9608 249.25391 167.11523 C 251.17364 178.1046 255.27979 184.79523 261.14648 186.49805 C 263.34863 187.13724 266.84469 187.00546 269.53125 186.18164 C 276.28485 184.11071 287.4821 176.70499 293.2207 170.51367 C 302.74659 160.23637 309.18995 146.63212 311.4043 132.125 C 312.20639 126.87021 312.20917 116.66415 311.41211 111.58398 C 308.94079 95.880958 302.05881 82.230794 291.01367 71.125 C 267.27676 47.257729 230.92219 42.962663 202.07812 60.617188 C 195.40337 64.702611 187.46384 71.930709 182.68164 78.275391 C 172.85045 91.318533 167.98775 105.72624 167.98242 121.83008 C 167.97486 141.24606 175.49994 159.42925 189.09766 172.85547 C 193.47204 177.17469 196.09535 179.30635 200.9082 182.45312 C 205.27666 185.30936 210.2183 187.78772 215.31836 189.67969 C 219.768 191.33037 221.05871 192.24261 222.38086 194.67188 C 224.71442 198.9594 222.96711 204.27174 218.54688 206.33008 C 216.03632 207.49912 213.715 207.40153 209.80859 205.96289 L 209.80469 205.96289 C 194.16742 200.20402 180.21614 190.23188 170.21094 177.66602 C 164.68134 170.72115 159.12292 160.86552 156.07031 152.58984 C 151.11826 139.16496 149.49967 122.82801 151.70703 108.56836 C 157.21974 72.955871 183.47382 44.02227 218.18164 35.308594 C 226.19779 33.296062 230.02512 32.869141 239.99219 32.869141 z M 222.99609 67.566406 C 226.14418 67.564955 227.47384 68.094822 228.49023 69.761719 C 229.12614 70.804664 229.17067 71.580916 229.17188 81.435547 L 229.17383 91.992188 L 222.89258 91.992188 L 216.60938 91.992188 L 216.61133 81.611328 C 216.61261 71.867158 216.65573 71.159279 217.30664 70.091797 C 218.46204 68.196851 219.87885 67.567899 222.99609 67.566406 z M 256.98633 67.566406 C 260.10357 67.567858 261.52237 68.196848 262.67773 70.091797 C 263.32861 71.159275 263.3718 71.867158 263.37305 81.611328 L 263.37305 91.992188 L 257.0918 91.992188 L 250.81055 91.992188 L 250.81055 81.435547 C 250.81161 71.58092 250.85812 70.804664 251.49414 69.761719 C 252.51053 68.094822 253.83821 67.564894 256.98633 67.566406 z "
       transform="scale(0.26458333)"
       id="rect816" />
  </g>
</svg>
