<?xml version="1.0" encoding="UTF-8" standalone="no"?>
<!-- Created with Inkscape (http://www.inkscape.org/) -->

<svg
   xmlns:dc="http://purl.org/dc/elements/1.1/"
   xmlns:cc="http://creativecommons.org/ns#"
   xmlns:rdf="http://www.w3.org/1999/02/22-rdf-syntax-ns#"
   xmlns:svg="http://www.w3.org/2000/svg"
   xmlns="http://www.w3.org/2000/svg"
   xmlns:sodipodi="http://sodipodi.sourceforge.net/DTD/sodipodi-0.dtd"
   xmlns:inkscape="http://www.inkscape.org/namespaces/inkscape"
   width="3.1660178mm"
   height="2.4990907mm"
   viewBox="0 0 3.1660178 2.4990907"
   version="1.1"
   id="svg8"
   inkscape:version="0.92.3 (unknown)"
   sodipodi:docname="edit.svg">
  <defs
     id="defs2" />
  <sodipodi:namedview
     id="base"
     pagecolor="#ffffff"
     bordercolor="#666666"
     borderopacity="1.0"
     inkscape:pageopacity="0.0"
     inkscape:pageshadow="2"
     inkscape:zoom="23.842186"
     inkscape:cx="7.7605151"
     inkscape:cy="7.5928188"
     inkscape:document-units="mm"
     inkscape:current-layer="layer1"
     showgrid="false"
     fit-margin-top="0"
     fit-margin-left="0"
     fit-margin-right="0"
     fit-margin-bottom="0"
     inkscape:window-width="1920"
     inkscape:window-height="1053"
     inkscape:window-x="0"
     inkscape:window-y="0"
     inkscape:window-maximized="1" />
  <metadata
     id="metadata5">
    <rdf:RDF>
      <cc:Work
         rdf:about="">
        <dc:format>image/svg+xml</dc:format>
        <dc:type
           rdf:resource="http://purl.org/dc/dcmitype/StillImage" />
        <dc:title></dc:title>
      </cc:Work>
    </rdf:RDF>
  </metadata>
  <g
     inkscape:label="Capa 1"
     inkscape:groupmode="layer"
     id="layer1">
    <g
       aria-label="ï„"
       style="font-style:normal;font-variant:normal;font-weight:normal;font-stretch:normal;font-size:3.18066096px;line-height:120.00000477%;font-family:FontAwesome;-inkscape-font-specification:FontAwesome;text-align:start;letter-spacing:0px;word-spacing:0px;text-anchor:start;fill:#000000;fill-opacity:1;stroke:none;stroke-width:0.07951652px;stroke-linecap:butt;stroke-linejoin:miter;stroke-opacity:1"
       id="text817">
      <path
         d="M 1.5761311,1.874318 H 1.4767354 V 1.7039254 H 1.3063429 V 1.6045298 L 1.5122339,1.3986388 1.7820221,1.668427 Z M 2.357097,0.59637385 c 0.015974,0.0159743 0.014199,0.0425981 -0.00177,0.0585724 L 1.7340992,1.2761691 c -0.015974,0.015974 -0.042598,0.017749 -0.058572,0.00178 -0.015974,-0.015974 -0.014199,-0.042598 0.00177,-0.058572 L 2.2985245,0.59814877 c 0.015974,-0.0159743 0.042598,-0.0177492 0.058572,-0.001775 z M 2.4990908,1.6506778 c 0,-0.023074 -0.014199,-0.042598 -0.035498,-0.051473 -0.021299,-0.00887 -0.044373,-0.00532 -0.062122,0.012425 l -0.113595,0.113595 c -0.010649,0.010649 -0.015974,0.024849 -0.015974,0.039048 V 1.987913 c 0,0.1561932 -0.1277944,0.2839876 -0.2839876,0.2839876 H 0.51117765 c -0.15619317,0 -0.28398758,-0.1277944 -0.28398758,-0.2839876 V 0.51117757 c 0,-0.15619317 0.12779441,-0.28398759 0.28398758,-0.28398759 H 1.9879131 c 0.026624,0 0.053248,0.00355 0.079871,0.0106495 0.019524,0.0071 0.040823,0.001775 0.056798,-0.0141994 l 0.086971,-0.0869712 C 2.2257527,0.12246956 2.2310775,0.10472034 2.2275276,0.08519619 2.2239778,0.06744697 2.2115533,0.05147266 2.195579,0.04437298 2.1299069,0.01419929 2.05891,-8.5149492e-8 1.9879131,-8.5149492e-8 H 0.51117765 C 0.22896499,-8.5149492e-8 0,0.22896491 0,0.51117757 V 1.987913 C 0,2.2701257 0.22896499,2.4990907 0.51117765,2.4990907 H 1.9879131 c 0.2822127,0 0.5111777,-0.228965 0.5111777,-0.5111777 z M 2.3286982,0.34078502 1.1359503,1.5335329 V 2.0447105 H 1.647128 L 2.8398759,0.85196267 Z m 0.7880656,0.23428976 c 0.065672,-0.0656721 0.065672,-0.17571732 0,-0.24138945 L 2.8469755,0.06389712 c -0.065672,-0.06567213 -0.1757173,-0.06567213 -0.2413894,0 L 2.4422932,0.22718998 2.9534709,0.73836764 Z"
         style="font-style:normal;font-variant:normal;font-weight:normal;font-stretch:normal;font-family:FontAwesome;-inkscape-font-specification:FontAwesome;stroke-width:0.07951652px"
         id="path835" />
    </g>
    <g
       id="g831">
      <flowRoot
         style="font-style:normal;font-variant:normal;font-weight:normal;font-stretch:normal;font-size:40px;line-height:120.00000477%;font-family:FontAwesome;-inkscape-font-specification:FontAwesome;text-align:start;letter-spacing:0px;word-spacing:0px;text-anchor:start;fill:#000000;fill-opacity:1;stroke:none;stroke-width:1px;stroke-linecap:butt;stroke-linejoin:miter;stroke-opacity:1"
         id="flowRoot819"
         xml:space="preserve"><flowRegion
           style="font-style:normal;font-variant:normal;font-weight:normal;font-stretch:normal;font-family:FontAwesome;-inkscape-font-specification:FontAwesome"
           id="flowRegion821"><rect
             style="font-style:normal;font-variant:normal;font-weight:normal;font-stretch:normal;font-family:FontAwesome;-inkscape-font-specification:FontAwesome"
             y="345.37683"
             x="-1077.1428"
             height="517.14288"
             width="791.42859"
             id="rect823" /></flowRegion><flowPara
           id="flowPara825"></flowPara></flowRoot>    </g>
  </g>
</svg>
