<?xml version="1.0" encoding="UTF-8" standalone="no"?>
<!-- Created with Inkscape (http://www.inkscape.org/) -->

<svg
   xmlns:dc="http://purl.org/dc/elements/1.1/"
   xmlns:cc="http://creativecommons.org/ns#"
   xmlns:rdf="http://www.w3.org/1999/02/22-rdf-syntax-ns#"
   xmlns:svg="http://www.w3.org/2000/svg"
   xmlns="http://www.w3.org/2000/svg"
   xmlns:sodipodi="http://sodipodi.sourceforge.net/DTD/sodipodi-0.dtd"
   xmlns:inkscape="http://www.inkscape.org/namespaces/inkscape"
   width="127mm"
   height="63.5mm"
   viewBox="0 0 127 63.5"
   version="1.1"
   id="svg8"
   inkscape:export-filename="/home/z/Escritorio/recursos.png"
   inkscape:export-xdpi="90"
   inkscape:export-ydpi="90"
   inkscape:version="0.92.3 (unknown)"
   sodipodi:docname="proyectos.svg">
  <defs
     id="defs2" />
  <sodipodi:namedview
     id="base"
     pagecolor="#ffffff"
     bordercolor="#666666"
     borderopacity="1.0"
     inkscape:pageopacity="0.0"
     inkscape:pageshadow="2"
     inkscape:zoom="0.98994949"
     inkscape:cx="246.16219"
     inkscape:cy="-172.49597"
     inkscape:document-units="mm"
     inkscape:current-layer="layer1"
     showgrid="false"
     fit-margin-top="0"
     fit-margin-left="0"
     fit-margin-right="0"
     fit-margin-bottom="0"
     inkscape:window-width="1920"
     inkscape:window-height="1053"
     inkscape:window-x="0"
     inkscape:window-y="0"
     inkscape:window-maximized="1" />
  <metadata
     id="metadata5">
    <rdf:RDF>
      <cc:Work
         rdf:about="">
        <dc:format>image/svg+xml</dc:format>
        <dc:type
           rdf:resource="http://purl.org/dc/dcmitype/StillImage" />
        <dc:title></dc:title>
      </cc:Work>
    </rdf:RDF>
  </metadata>
  <g
     inkscape:label="Capa 1"
     inkscape:groupmode="layer"
     id="layer1">
    <path
       style="color:#000000;clip-rule:nonzero;display:inline;overflow:visible;visibility:visible;opacity:1;isolation:auto;mix-blend-mode:normal;color-interpolation:sRGB;color-interpolation-filters:linearRGB;solid-color:#000000;solid-opacity:1;fill:#ffffff;fill-opacity:1;fill-rule:nonzero;stroke:none;stroke-width:3.17499995;stroke-linecap:round;stroke-linejoin:bevel;stroke-miterlimit:4;stroke-dasharray:none;stroke-dashoffset:0;stroke-opacity:1;paint-order:fill markers stroke;color-rendering:auto;image-rendering:auto;shape-rendering:auto;text-rendering:auto;enable-background:accumulate"
       d="M 0,0 V 63.499999 H 127 V 0 Z m 57.897241,8.6620031 h 9.10177 c 0.69375,0 1.249018,0.5270527 1.249018,1.1653018 0,0.1665022 -0.05576,0.3332111 -0.139009,0.4997131 l -4.744929,12.848309 10.988992,-2.719728 c 0.111001,-0.02775 0.221798,-0.0553 0.332796,-0.0553 0.360751,0 0.693861,0.166246 0.943612,0.415997 0.30525,0.332999 0.388554,0.804862 0.194302,1.221113 L 60.838664,54.144497 c -0.222001,0.41625 -0.665805,0.693496 -1.165304,0.693496 -0.111001,0 -0.249857,-0.02754 -0.388607,-0.05529 -0.6105,-0.194249 -0.971256,-0.777372 -0.832506,-1.360123 l 5.466847,-22.421889 -11.266495,2.80293 c -0.110998,0.02775 -0.222311,0.02791 -0.333312,0.02791 -0.30525,0 -0.638413,-0.111156 -0.860414,-0.305406 -0.333,-0.2775 -0.44395,-0.693605 -0.360701,-1.082106 L 56.676125,9.5498046 c 0.13875,-0.5272511 0.638366,-0.8878015 1.221116,-0.8878015 z"
       id="rect830"
       inkscape:connector-curvature="0" />
  </g>
</svg>
