<?xml version="1.0" encoding="UTF-8" standalone="no"?>
<!-- Created with Inkscape (http://www.inkscape.org/) -->

<svg
   xmlns:dc="http://purl.org/dc/elements/1.1/"
   xmlns:cc="http://creativecommons.org/ns#"
   xmlns:rdf="http://www.w3.org/1999/02/22-rdf-syntax-ns#"
   xmlns:svg="http://www.w3.org/2000/svg"
   xmlns="http://www.w3.org/2000/svg"
   xmlns:sodipodi="http://sodipodi.sourceforge.net/DTD/sodipodi-0.dtd"
   xmlns:inkscape="http://www.inkscape.org/namespaces/inkscape"
   width="127mm"
   height="63.5mm"
   viewBox="0 0 127 63.5"
   version="1.1"
   id="svg8"
   inkscape:export-filename="/home/z/Escritorio/recursos.png"
   inkscape:export-xdpi="90"
   inkscape:export-ydpi="90"
   inkscape:version="0.92.3 (unknown)"
   sodipodi:docname="proyectos.svg">
  <defs
     id="defs2" />
  <sodipodi:namedview
     id="base"
     pagecolor="#ffffff"
     bordercolor="#666666"
     borderopacity="1.0"
     inkscape:pageopacity="0.0"
     inkscape:pageshadow="2"
     inkscape:zoom="0.98994949"
     inkscape:cx="289.33665"
     inkscape:cy="112.74436"
     inkscape:document-units="mm"
     inkscape:current-layer="layer1"
     showgrid="false"
     fit-margin-top="0"
     fit-margin-left="0"
     fit-margin-right="0"
     fit-margin-bottom="0"
     inkscape:window-width="1920"
     inkscape:window-height="1053"
     inkscape:window-x="0"
     inkscape:window-y="0"
     inkscape:window-maximized="1"
     showguides="true"
     inkscape:guide-bbox="true">
    <sodipodi:guide
       position="371.23737,81.249878"
       orientation="1,0"
       id="guide860"
       inkscape:locked="false" />
  </sodipodi:namedview>
  <metadata
     id="metadata5">
    <rdf:RDF>
      <cc:Work
         rdf:about="">
        <dc:format>image/svg+xml</dc:format>
        <dc:type
           rdf:resource="http://purl.org/dc/dcmitype/StillImage" />
        <dc:title></dc:title>
      </cc:Work>
    </rdf:RDF>
  </metadata>
  <g
     inkscape:label="Capa 1"
     inkscape:groupmode="layer"
     id="layer1"
     transform="translate(0,5.4830319e-5)">
    <path
       style="color:#000000;clip-rule:nonzero;display:inline;overflow:visible;visibility:visible;opacity:1;isolation:auto;mix-blend-mode:normal;color-interpolation:sRGB;color-interpolation-filters:linearRGB;solid-color:#000000;solid-opacity:1;fill:#ffffff;fill-opacity:1;fill-rule:nonzero;stroke:none;stroke-width:12;stroke-linecap:round;stroke-linejoin:bevel;stroke-miterlimit:4;stroke-dasharray:none;stroke-dashoffset:0;stroke-opacity:1;paint-order:fill markers stroke;color-rendering:auto;image-rendering:auto;shape-rendering:auto;text-rendering:auto;enable-background:accumulate"
       d="M 0,49.720703 V 289.7207 H 480 V 49.720703 Z m 242.24805,29.111328 c 40.0753,-0.114188 72.4933,23.168539 85.0039,59.988279 1.78721,5.25994 3.112,10.75215 3.9336,16.41797 6.5723,45.32649 -21.32224,88.76882 -65.27344,101.65234 -43.9511,12.88351 -90.88582,-8.62652 -109.82422,-50.32812 -18.9384,-41.70162 -4.2476,-91.19976 34.375,-115.816406 12.7529,-8.124747 24.93835,11.004166 12.18555,19.128906 -29.2432,18.63851 -40.25913,55.73416 -25.91992,87.30859 14.33929,31.57443 49.52894,47.70008 82.80664,37.94532 33.2777,-9.75475 54.18723,-42.3216 49.21093,-76.64063 -4.1168,-28.39178 -24.88651,-50.58194 -51.57031,-57.34961 l -17.5332,44.66406 29.0293,-7.18359 c 0.29329,-0.0733 0.58569,-0.14648 0.8789,-0.14648 0.953,0 1.83249,0.4379 2.49219,1.09765 0.80639,0.87966 1.02677,2.12698 0.51367,3.22657 l -39.58594,84.81445 c -0.5864,1.09959 -1.75862,1.83203 -3.07812,1.83203 -0.2933,0 -0.65889,-0.0713 -1.02539,-0.14453 -1.6127,-0.51313 -2.56572,-2.05434 -2.19922,-3.59375 l 14.44141,-59.23047 -29.76172,7.4043 c -0.29331,0.0733 -0.58765,0.0742 -0.88086,0.0742 -0.8064,1e-5 -1.68704,-0.2935 -2.27344,-0.80664 -0.8797,-0.73305 -1.17313,-1.83309 -0.95313,-2.85937 l 20.94141,-83.046876 c 0.0161,-0.072 0.0366,-0.14307 0.0547,-0.214843 l 0.30469,-1.207032 c 0.0464,-0.175937 0.1303,-0.277125 0.23828,-0.324218 1.6687,-3.604858 5.99334,-6.54993 13.46875,-6.66211 z"
       transform="matrix(0.26458333,0,0,0.26458333,0,-13.155324)"
       id="rect830"
       inkscape:connector-curvature="0" />
  </g>
</svg>
