<?xml version="1.0" encoding="UTF-8" standalone="no"?>
<!-- Created with Inkscape (http://www.inkscape.org/) -->

<svg
   xmlns:dc="http://purl.org/dc/elements/1.1/"
   xmlns:cc="http://creativecommons.org/ns#"
   xmlns:rdf="http://www.w3.org/1999/02/22-rdf-syntax-ns#"
   xmlns:svg="http://www.w3.org/2000/svg"
   xmlns="http://www.w3.org/2000/svg"
   xmlns:sodipodi="http://sodipodi.sourceforge.net/DTD/sodipodi-0.dtd"
   xmlns:inkscape="http://www.inkscape.org/namespaces/inkscape"
   width="127mm"
   height="63.5mm"
   viewBox="0 0 127 63.5"
   version="1.1"
   id="svg8"
   inkscape:export-filename="/home/z/Escritorio/recursos.png"
   inkscape:export-xdpi="90"
   inkscape:export-ydpi="90"
   inkscape:version="0.92.3 (unknown)"
   sodipodi:docname="recursos.svg">
  <defs
     id="defs2" />
  <sodipodi:namedview
     id="base"
     pagecolor="#ffffff"
     bordercolor="#666666"
     borderopacity="1.0"
     inkscape:pageopacity="0.0"
     inkscape:pageshadow="2"
     inkscape:zoom="1.979899"
     inkscape:cx="280.31893"
     inkscape:cy="76.651816"
     inkscape:document-units="mm"
     inkscape:current-layer="layer1"
     showgrid="false"
     fit-margin-top="0"
     fit-margin-left="0"
     fit-margin-right="0"
     fit-margin-bottom="0"
     inkscape:window-width="1920"
     inkscape:window-height="1053"
     inkscape:window-x="0"
     inkscape:window-y="0"
     inkscape:window-maximized="1"
     inkscape:snap-page="true" />
  <metadata
     id="metadata5">
    <rdf:RDF>
      <cc:Work
         rdf:about="">
        <dc:format>image/svg+xml</dc:format>
        <dc:type
           rdf:resource="http://purl.org/dc/dcmitype/StillImage" />
        <dc:title />
      </cc:Work>
    </rdf:RDF>
  </metadata>
  <g
     inkscape:label="Capa 1"
     inkscape:groupmode="layer"
     id="layer1">
    <path
       style="color:#000000;clip-rule:nonzero;display:inline;overflow:visible;visibility:visible;opacity:1;isolation:auto;mix-blend-mode:normal;color-interpolation:sRGB;color-interpolation-filters:linearRGB;solid-color:#000000;solid-opacity:1;fill:#ffffff;fill-opacity:1;fill-rule:nonzero;stroke:none;stroke-width:22.67716599;stroke-linecap:round;stroke-linejoin:bevel;stroke-miterlimit:4;stroke-dasharray:none;stroke-dashoffset:0;stroke-opacity:1;paint-order:fill markers stroke;color-rendering:auto;image-rendering:auto;shape-rendering:auto;text-rendering:auto;enable-background:accumulate"
       d="M 0 0 L 0 240 L 480 240 L 480 0 L 0 0 z M 239.73242 30.451172 C 290.213 30.451172 330.75781 67.237533 330.75781 120.13477 C 330.75781 172.76345 290.213 209.54883 239.73242 209.54883 C 189.2518 209.54883 149.24219 172.76345 149.24219 120.13477 C 149.24219 67.237533 189.2518 30.451172 239.73242 30.451172 z M 239.73242 51.664062 C 201.87195 51.664063 173.67773 79.320656 173.67773 120.13477 C 173.67773 160.68035 201.87195 188.06836 239.73242 188.06836 C 277.86139 188.06836 306.05469 160.68035 306.05469 120.13477 C 306.05469 79.320656 277.86139 51.664063 239.73242 51.664062 z M 239.48828 77.189453 C 244.28277 77.19204 249.11828 78.01303 253.78711 79.707031 C 270.38739 85.730143 281.57669 101.54967 281.83203 119.33398 C 282.08738 137.11831 271.31598 153.33115 254.86328 159.84961 C 238.41058 166.36807 219.60752 161.88748 207.80664 148.68945 A 11.296558 11.383039 14.999526 1 1 224.63477 133.4375 C 230.22456 139.68909 238.94198 141.74385 246.65625 138.6875 C 254.37052 135.63115 259.35509 128.15833 259.23438 119.75195 C 259.11367 111.34557 253.88027 103.95283 246.04883 101.11133 C 238.21738 98.26983 229.60867 100.59441 224.23438 106.9668 A 11.297352 11.383839 14.999526 1 1 207.02344 92.277344 C 209.8861 88.883033 213.20259 86.025964 216.82617 83.740234 C 223.62038 79.454486 231.49746 77.185141 239.48828 77.189453 z "
       transform="scale(0.26458333)"
       id="rect830" />
    <text
       xml:space="preserve"
       style="font-style:normal;font-weight:normal;font-size:10.58333302px;line-height:120.00000477%;font-family:sans-serif;text-align:start;letter-spacing:10.36108208px;word-spacing:0px;text-anchor:start;fill:#000000;fill-opacity:1;stroke:none;stroke-width:0.26458332px;stroke-linecap:butt;stroke-linejoin:miter;stroke-opacity:1"
       x="189.49409"
       y="30.625849"
       id="text818"><tspan
         sodipodi:role="line"
         id="tspan816"
         x="189.49409"
         y="39.725037"
         style="fill:#ffffff;fill-opacity:1;stroke-width:0.26458332px" /></text>
  </g>
</svg>
