<?xml version="1.0" encoding="UTF-8" standalone="no"?>
<!-- Created with Inkscape (http://www.inkscape.org/) -->

<svg
   xmlns:dc="http://purl.org/dc/elements/1.1/"
   xmlns:cc="http://creativecommons.org/ns#"
   xmlns:rdf="http://www.w3.org/1999/02/22-rdf-syntax-ns#"
   xmlns:svg="http://www.w3.org/2000/svg"
   xmlns="http://www.w3.org/2000/svg"
   xmlns:sodipodi="http://sodipodi.sourceforge.net/DTD/sodipodi-0.dtd"
   xmlns:inkscape="http://www.inkscape.org/namespaces/inkscape"
   width="127mm"
   height="63.5mm"
   viewBox="0 0 127 63.5"
   version="1.1"
   id="svg8"
   inkscape:export-filename="/home/z/Escritorio/recursos.png"
   inkscape:export-xdpi="90"
   inkscape:export-ydpi="90"
   inkscape:version="0.92.3 (unknown)"
   sodipodi:docname="recursos.svg">
  <defs
     id="defs2" />
  <sodipodi:namedview
     id="base"
     pagecolor="#ffffff"
     bordercolor="#666666"
     borderopacity="1.0"
     inkscape:pageopacity="0.0"
     inkscape:pageshadow="2"
     inkscape:zoom="0.98994949"
     inkscape:cx="381.52263"
     inkscape:cy="126.50918"
     inkscape:document-units="mm"
     inkscape:current-layer="layer1"
     showgrid="false"
     fit-margin-top="0"
     fit-margin-left="0"
     fit-margin-right="0"
     fit-margin-bottom="0"
     inkscape:window-width="1366"
     inkscape:window-height="741"
     inkscape:window-x="1920"
     inkscape:window-y="0"
     inkscape:window-maximized="1" />
  <metadata
     id="metadata5">
    <rdf:RDF>
      <cc:Work
         rdf:about="">
        <dc:format>image/svg+xml</dc:format>
        <dc:type
           rdf:resource="http://purl.org/dc/dcmitype/StillImage" />
        <dc:title></dc:title>
      </cc:Work>
    </rdf:RDF>
  </metadata>
  <g
     inkscape:label="Capa 1"
     inkscape:groupmode="layer"
     id="layer1">
    <path
       style="color:#000000;clip-rule:nonzero;display:inline;overflow:visible;visibility:visible;opacity:1;isolation:auto;mix-blend-mode:normal;color-interpolation:sRGB;color-interpolation-filters:linearRGB;solid-color:#000000;solid-opacity:1;fill:#ffffff;fill-opacity:1;fill-rule:nonzero;stroke:none;stroke-width:3.17499971;stroke-linecap:round;stroke-linejoin:bevel;stroke-miterlimit:4;stroke-dasharray:none;stroke-dashoffset:0;stroke-opacity:1;paint-order:fill markers stroke;color-rendering:auto;image-rendering:auto;shape-rendering:auto;text-rendering:auto;enable-background:accumulate"
       d="M 0,-0.52916747 V 63.499998 H 127 V -0.52916747 Z M 47.445683,8.1148742 h 32.108632 c 0.459571,0 0.919319,0.092398 1.34824,0.2777305 1.348065,0.5251862 2.205551,1.7919783 2.205551,3.1821793 v 39.821263 c 0,1.390202 -0.857486,2.656992 -2.205551,3.182178 -0.428937,0.185383 -0.888659,0.24699 -1.34824,0.24699 -0.949775,-3e-6 -1.838325,-0.339712 -2.542995,-0.988472 L 63.499999,40.738067 49.988678,53.836743 c -0.704672,0.64876 -1.59322,1.019214 -2.542995,1.019214 -0.45957,0 -0.919321,-0.0924 -1.34824,-0.277732 -1.348065,-0.525186 -2.20555,-1.791976 -2.20555,-3.182178 V 11.574784 c 0,-1.390201 0.857485,-2.6569931 2.20555,-3.1821793 0.428935,-0.1853321 0.888659,-0.2777305 1.34824,-0.2777305 z"
       id="rect815"
       inkscape:connector-curvature="0" />
    <path
       style="color:#000000;clip-rule:nonzero;display:inline;overflow:visible;visibility:visible;opacity:1;isolation:auto;mix-blend-mode:normal;color-interpolation:sRGB;color-interpolation-filters:linearRGB;solid-color:#000000;solid-opacity:1;fill:#ffffff;fill-opacity:1;fill-rule:nonzero;stroke:none;stroke-width:12;stroke-linecap:round;stroke-linejoin:bevel;stroke-miterlimit:4;stroke-dasharray:none;stroke-dashoffset:0;stroke-opacity:1;paint-order:fill markers stroke;color-rendering:auto;image-rendering:auto;shape-rendering:auto;text-rendering:auto;enable-background:accumulate"
       d="M 0 260.61914 L 0 500.61914 L 480 500.61914 L 480 260.61914 L 0 260.61914 z M 193.91211 295.94141 C 213.20739 295.94141 231.28955 311.15566 240 319.75586 C 248.71045 311.15566 266.79261 295.94141 286.08789 295.94141 C 319.05528 295.94141 338.79102 315.23517 338.79102 347.54102 C 338.79102 360.22078 333.27925 371.79842 327.43555 380.61914 L 286.75 380.61914 L 274.51172 356.25195 C 273.29888 353.71608 270.43225 352.17204 267.67578 352.39258 C 264.69879 352.72335 262.27186 354.5981 261.5 357.46484 L 247.27734 404.87695 L 225.66602 329.23828 C 224.78395 326.26121 222.02847 324.16602 218.7207 324.16602 C 215.52319 324.16602 212.766 326.37173 211.99414 329.45898 L 199.20508 380.61914 L 152.56445 380.61914 C 146.72075 371.79842 141.20898 360.22078 141.20898 347.54102 C 141.20898 315.23517 160.94472 295.94141 193.91211 295.94141 z M 219.27148 358.45703 L 240.2207 432 C 241.10279 434.97706 243.85915 437.07227 247.05664 437.07227 C 250.14389 437.07227 252.90108 434.97698 253.7832 432 L 269.88086 378.52539 L 276.05469 390.87305 C 277.26755 393.18839 279.69363 394.73242 282.33984 394.73242 L 315.96875 394.73242 C 314.64571 396.16569 313.7635 396.93748 313.54297 397.1582 L 244.85156 463.31445 C 243.52846 464.63744 241.76404 465.29883 240 465.29883 C 238.23585 465.29883 236.47163 464.63763 235.14844 463.31445 L 166.34766 396.9375 C 166.12706 396.82714 165.24418 396.0556 164.03125 394.73242 L 204.7168 394.73242 C 207.91429 394.73242 210.78087 392.52672 211.55273 389.43945 L 219.27148 358.45703 z "
       id="rect824"
       transform="scale(0.26458333)" />
  </g>
</svg>
