<?xml version="1.0" encoding="UTF-8" standalone="no"?>
<!-- Created with Inkscape (http://www.inkscape.org/) -->

<svg
   xmlns:dc="http://purl.org/dc/elements/1.1/"
   xmlns:cc="http://creativecommons.org/ns#"
   xmlns:rdf="http://www.w3.org/1999/02/22-rdf-syntax-ns#"
   xmlns:svg="http://www.w3.org/2000/svg"
   xmlns="http://www.w3.org/2000/svg"
   xmlns:sodipodi="http://sodipodi.sourceforge.net/DTD/sodipodi-0.dtd"
   xmlns:inkscape="http://www.inkscape.org/namespaces/inkscape"
   width="127mm"
   height="63.5mm"
   viewBox="0 0 127 63.5"
   version="1.1"
   id="svg8"
   inkscape:export-filename="/home/z/Escritorio/recursos.png"
   inkscape:export-xdpi="90"
   inkscape:export-ydpi="90"
   inkscape:version="0.92.3 (unknown)"
   sodipodi:docname="recursos.svg">
  <defs
     id="defs2" />
  <sodipodi:namedview
     id="base"
     pagecolor="#ffffff"
     bordercolor="#666666"
     borderopacity="1.0"
     inkscape:pageopacity="0.0"
     inkscape:pageshadow="2"
     inkscape:zoom="0.7"
     inkscape:cx="291.51975"
     inkscape:cy="29.925192"
     inkscape:document-units="mm"
     inkscape:current-layer="layer1"
     showgrid="false"
     fit-margin-top="0"
     fit-margin-left="0"
     fit-margin-right="0"
     fit-margin-bottom="0"
     inkscape:window-width="1366"
     inkscape:window-height="741"
     inkscape:window-x="1920"
     inkscape:window-y="0"
     inkscape:window-maximized="1" />
  <metadata
     id="metadata5">
    <rdf:RDF>
      <cc:Work
         rdf:about="">
        <dc:format>image/svg+xml</dc:format>
        <dc:type
           rdf:resource="http://purl.org/dc/dcmitype/StillImage" />
        <dc:title />
      </cc:Work>
    </rdf:RDF>
  </metadata>
  <g
     inkscape:label="Capa 1"
     inkscape:groupmode="layer"
     id="layer1">
    <text
       xml:space="preserve"
       style="font-style:normal;font-weight:normal;font-size:10.58333302px;line-height:120.00000477%;font-family:sans-serif;text-align:start;letter-spacing:10.36108208px;word-spacing:0px;text-anchor:start;fill:#000000;fill-opacity:1;stroke:none;stroke-width:0.26458332px;stroke-linecap:butt;stroke-linejoin:miter;stroke-opacity:1"
       x="189.49409"
       y="30.625849"
       id="text818"><tspan
         sodipodi:role="line"
         id="tspan816"
         x="189.49409"
         y="39.725037"
         style="fill:#ffffff;fill-opacity:1;stroke-width:0.26458332px" /></text>
    <path
       style="color:#000000;clip-rule:nonzero;display:inline;overflow:visible;visibility:visible;opacity:1;isolation:auto;mix-blend-mode:normal;color-interpolation:sRGB;color-interpolation-filters:linearRGB;solid-color:#000000;solid-opacity:1;fill:#ffffff;fill-opacity:1;fill-rule:nonzero;stroke:none;stroke-width:3.17499995;stroke-linecap:round;stroke-linejoin:bevel;stroke-miterlimit:4;stroke-dasharray:none;stroke-dashoffset:0;stroke-opacity:1;paint-order:fill markers stroke;color-rendering:auto;image-rendering:auto;shape-rendering:auto;text-rendering:auto;enable-background:accumulate"
       d="M -5.7e-6,-0.26458385 V 63.764584 H 127.00001 V -0.26458385 Z M 63.429195,8.056872 c 13.35632,0 24.0838,9.733061 24.0838,23.728785 0,13.924677 -10.72748,23.657467 -24.0838,23.657467 -13.35633,0 -23.94221,-9.73279 -23.94221,-23.657467 0,-13.995724 10.58588,-23.728785 23.94221,-23.728785 z m 0,5.612577 c -10.01725,0 -17.47697,7.317477 -17.47697,18.116208 0,10.727685 7.45972,17.974096 17.47697,17.974096 10.08829,0 17.54777,-7.246411 17.54777,-17.974096 0,-10.798731 -7.45948,-18.116208 -17.54777,-18.116208 z m -0.14211,4.049366 c 7.24652,0 12.57494,5.257081 12.57494,13.995526 0,9.022625 -4.97346,13.996046 -12.64626,13.996046 -3.83638,0 -7.033,-1.492245 -9.44851,-3.765661 l 3.1259,-4.546492 c 1.77612,1.349841 3.481,2.059821 5.68338,2.059821 3.12594,0 5.18625,-2.131213 5.18625,-7.743714 0,-5.754585 -2.34475,-7.814509 -5.25756,-7.814509 -1.84716,0 -3.26779,0.354964 -5.11494,1.704806 l -3.41013,-4.262789 c 2.48655,-2.273417 5.75471,-3.623034 9.30693,-3.623034 z"
       id="rect814"
       inkscape:connector-curvature="0" />
  </g>
</svg>
