<?xml version="1.0" encoding="UTF-8" standalone="no"?>
<!-- Created with Inkscape (http://www.inkscape.org/) -->

<svg
   xmlns:dc="http://purl.org/dc/elements/1.1/"
   xmlns:cc="http://creativecommons.org/ns#"
   xmlns:rdf="http://www.w3.org/1999/02/22-rdf-syntax-ns#"
   xmlns:svg="http://www.w3.org/2000/svg"
   xmlns="http://www.w3.org/2000/svg"
   xmlns:sodipodi="http://sodipodi.sourceforge.net/DTD/sodipodi-0.dtd"
   xmlns:inkscape="http://www.inkscape.org/namespaces/inkscape"
   width="192.41035mm"
   height="98.406593mm"
   viewBox="0 0 681.76897 348.68478"
   id="svg2"
   version="1.1"
   inkscape:version="0.91 r13725"
   sodipodi:docname="s3.svg">
  <defs
     id="defs4" />
  <sodipodi:namedview
     id="base"
     pagecolor="#ffffff"
     bordercolor="#666666"
     borderopacity="1.0"
     inkscape:pageopacity="0.0"
     inkscape:pageshadow="2"
     inkscape:zoom="0.35"
     inkscape:cx="-145"
     inkscape:cy="-183.67742"
     inkscape:document-units="px"
     inkscape:current-layer="layer1"
     showgrid="false"
     fit-margin-top="0"
     fit-margin-left="0"
     fit-margin-right="0"
     fit-margin-bottom="0"
     inkscape:window-width="1920"
     inkscape:window-height="1056"
     inkscape:window-x="0"
     inkscape:window-y="0"
     inkscape:window-maximized="1" />
  <metadata
     id="metadata7">
    <rdf:RDF>
      <cc:Work
         rdf:about="">
        <dc:format>image/svg+xml</dc:format>
        <dc:type
           rdf:resource="http://purl.org/dc/dcmitype/StillImage" />
        <dc:title></dc:title>
      </cc:Work>
    </rdf:RDF>
  </metadata>
  <g
     inkscape:label="Capa 1"
     inkscape:groupmode="layer"
     id="layer1">
    <path
       style="fill:#ffff00;opacity:0.773"
       d="m 160.56401,346.36214 c -0.5143,-0.4887 -9.37428,-1.4718 -19.68882,-2.1844 -10.31455,-0.713 -24.28817,-3.9901 -31.05249,-7.2829 -6.76432,-3.2927 -13.621172,-4.6644 -15.237402,-3.0478 -1.61624,1.6162 -2.93864,0.6192 -2.93864,-2.2156 0,-2.8344 -3.94552,-6.4059 -8.76781,-7.9365 -21.883676,-6.9457 -71.099716,-73.4186 -78.2341162,-105.666 -1.14304,-5.1667 -3.012,-13.6134 -4.15328001,-18.7706 -1.14124,-5.1573 -0.22617,-9.3769 2.03377001,-9.3769 2.25982,0 3.03945,-5.802 1.73254,-12.8932 -3.16127,-17.1529 -3.11739,-24.8922 0.21267,-37.5074 1.53147,-5.802 3.6389,-14.35675 4.68318,-19.01029 C 15.895872,90.424833 47.628862,48.726303 68.886428,41.979463 c 4.78224,-1.51792 8.69498,-4.72744 8.69498,-7.132413 0,-2.40461 2.93897,-4.37225 6.53102,-4.37225 3.59209,0 7.79679,-3.2984 9.34378,-7.33008 1.547,-4.0313 4.93741,-6.01657 7.534232,-4.41162 2.59687,1.60494 4.72155,0.91255 4.72155,-1.53893 0,-2.45111 5.80196,-5.93818 12.89319,-7.74904 7.09127,-1.81086 17.11277,-4.34936 22.27004,-5.6415 C 146.0325,2.5115 161.81391,1.1271 175.94506,0.72727 L 201.638,0 l 0.35557,37.507453 c 0.42219,44.53147 -0.76005,49.22852 -12.39145,49.22852 -4.88137,0 -8.87523,2.06966 -8.87523,4.59917 0,3.76799 -17.46325,10.898907 -28.48357,11.631057 -1.4835,0.0975 -10.64019,6.50866 -20.3482,14.24457 -16.54379,13.18275 -33.284522,41.53127 -28.80557,48.77807 1.10204,1.7835 0.28505,6.0233 -1.81555,9.4219 -2.189382,3.5425 -1.06926,11.4502 2.6247,18.5301 3.54415,6.7923 6.45694,14.7686 6.47284,17.7249 0.015,2.956 6.99649,11.4923 15.51248,18.9694 l 15.4836,13.595 82.67324,-0.2476 c 76.42124,-0.2288 83.67097,-0.992 95.86663,-10.0827 28.49606,-21.2412 39.38935,-63.5466 22.85884,-88.7753 -9.83329,-15.00745 -9.39816,-17.64723 5.57196,-33.80319 7.09127,-7.65264 21.023,-23.699447 30.95951,-35.659067 9.93643,-11.95925 19.70217,-21.74457 21.70166,-21.74457 7.88057,0 51.65641,46.334817 51.65641,54.676097 0,4.8816 3.0902,13.28739 6.86709,18.67984 3.77696,5.39207 5.45145,11.21999 3.72108,12.95019 -1.7303,1.7302 1.50889,4.3632 7.1982,5.8512 5.68932,1.4879 10.34422,4.6933 10.34422,7.1234 0,2.4301 1.93118,3.2249 4.29145,1.7658 5.74344,-3.5497 31.95905,18.8832 35.64719,30.5037 1.61278,5.0815 5.01201,7.9535 7.55385,6.3827 2.5418,-1.5709 12.83741,2.5808 22.87902,9.226 13.6254,9.0168 19.20692,10.6165 21.99943,6.3047 2.05803,-3.178 3.99582,-26.876 4.30623,-52.6624 0.31056,-25.78634 0.83784,-70.795647 1.17211,-100.020697 l 0.60773,-53.136803 50.40063,1.56368 50.40063,1.56406 1.47464,17.90869 c 0.81103,9.84983 -0.42053,20.398793 -2.7368,23.442153 -4.57944,6.01694 -3.82486,32.05986 1.41677,48.90146 2.49649,8.020967 1.41864,10.548967 -4.49831,10.548967 -6.60277,0 -7.448,4.08343 -5.57998,26.95847 1.21085,14.82712 4.07792,33.28782 6.37124,41.02382 3.16071,10.6614 4.65914,158.2022 1.73802,171.1277 -0.29181,1.2891 -22.15516,2.223 -48.58621,2.0756 l -48.05642,-0.27 -17.80782,-17.45 c -9.79432,-9.5974 -19.81586,-16.2088 -22.27005,-14.692 -2.45422,1.5168 -4.46222,0.5232 -4.46222,-2.2073 0,-2.7309 -1.8864,-4.9653 -4.19191,-4.9653 -3.7525,0 -36.94851,-28.9737 -77.8895,-67.9822 -17.757,-16.9189 -28.40049,-16.063 -32.12989,2.5842 -2.4795,12.3978 -8.82666,16.4519 -22.65483,14.4708 -1.78521,-0.2551 -9.25088,5.5398 -16.59045,12.8793 -7.33949,7.3395 -18.01021,14.8256 -23.71262,16.6353 -9.83201,3.1206 -11.74084,7.6819 -11.58721,27.6869 0.0555,7.2299 -2.44357,8.1473 -15.51361,5.6955 -12.45003,-2.3356 -16.55522,-1.1001 -20.43555,6.1505 -3.71159,6.9351 -3.21889,9.7013 2.09096,11.7387 3.82074,1.4661 6.78022,5.3692 6.57663,8.6736 -0.23217,3.7653 -1.1679,4.0744 -2.50775,0.8285 -1.1757,-2.8487 -7.86594,-4.4214 -14.86727,-3.4949 -7.00129,0.9264 -10.09236,0.444 -6.86908,-1.072 7.63581,-3.5917 7.43642,-10.4458 -0.53583,-18.418 -4.95057,-4.9506 -7.75538,-5.1401 -12.40889,-0.8372 -4.64875,4.298 -5.2854,4.2676 -2.80679,-0.135 4.20049,-7.461 -29.01648,6.0462 -40.92809,16.6428 -6.28839,5.5938 -18.09487,7.7306 -43.605,7.8915 -19.24,0.1201 -35.4026,-0.18 -35.9169,-0.6683 z m 20.16284,-43.9583 c 0,-2.5787 -2.23432,-4.6885 -4.96512,-4.6885 -2.73081,0 -3.66122,2.1098 -2.06753,4.6885 1.59369,2.5786 3.82798,4.6884 4.96513,4.6884 1.13715,0 2.06752,-2.1098 2.06752,-4.6884 z m 232.87766,-134.3829 c -1.38639,-1.3866 -4.99611,-0.9909 -8.02161,0.8788 -4.07863,2.5209 -3.85625,4.4218 0.8602,7.3523 6.25174,3.8839 12.31163,-3.0809 7.16141,-8.2311 z M 52.595302,149.26724 c -1.38635,-1.3866 -4.99607,-0.9909 -8.02157,0.8788 -4.07863,2.5209 -3.85625,4.4218 0.8602,7.3522 6.25178,3.8839 12.31163,-3.0808 7.16137,-8.231 z M 644.8815,133.04604 c 0,-5.65237 -12.83899,-5.20303 -16.40951,0.5742 -5.06755,8.1992 2.44714,15.1279 9.79428,9.0303 3.63838,-3.0197 6.61523,-7.3417 6.61523,-9.6045 z m -309.43643,207.0929 c 0,-4.2688 28.53142,-18.876 35.89627,-18.3776 1.59883,0.1088 4.88584,-2.6206 7.30447,-6.0642 3.60082,-5.1265 4.09918,-5.1355 2.75117,-0.049 -0.90543,3.4169 -3.46742,5.874 -5.6933,5.4603 -2.22584,-0.4137 -5.7883,2.0652 -7.91651,5.5087 -2.12821,3.4436 -5.52878,6.3358 -7.55685,6.4273 -2.02802,0.09 -8.43433,2.8029 -14.23628,6.0256 -6.48504,3.6018 -10.54897,4.0137 -10.54897,1.0686 z m 58.60538,-37.7351 c 4.66728,-5.1573 9.54088,-9.3769 10.8302,-9.3769 1.28932,0 -1.47449,4.2196 -6.14177,9.3769 -4.66727,5.1572 -9.54084,9.3768 -10.83016,9.3768 -1.28932,0 1.47445,-4.2196 6.14173,-9.3768 z"
       id="path14138"
       inkscape:connector-curvature="0" />
  </g>
</svg>
